<?xml version="1.0" encoding="UTF-8"?>
<svg id="Calque_1" data-name="Calque 1" xmlns="http://www.w3.org/2000/svg" viewBox="0 0 869 655">
  <defs>
    <style>
      .cls-1 {
        fill: #f96c62;
      }

      .cls-1, .cls-2 {
        stroke-width: 0px;
      }

      .cls-3 {
        fill: #9d7d5c;
        stroke: #4b3124;
        stroke-miterlimit: 10;
        stroke-width: 2px;
      }

      .cls-4 {
        opacity: .58;
      }

      .cls-2 {
        fill: #4b3124;
      }
    </style>
  </defs>
  <rect class="cls-1" x="-6.57" y="-5.14" width="882.95" height="447.96"/>
  <g class="cls-4">
    <g>
      <path class="cls-2" d="m847.17-7.11v408.4c0,1.77-.38,3.85,0,5.6.05.22,0,.48,0,.71,0,.91,1.78.92,1.78,0V-.8c0-1.77.38-3.85,0-5.6-.05-.22,0-.48,0-.71,0-.91-1.78-.92-1.78,0h0Z"/>
      <path class="cls-2" d="m810.58-7.11v408.4c0,1.77-.38,3.85,0,5.6.05.22,0,.48,0,.71,0,.91,1.78.92,1.78,0V-.8c0-1.77.38-3.85,0-5.6-.05-.22,0-.48,0-.71,0-.91-1.78-.92-1.78,0h0Z"/>
      <path class="cls-2" d="m773.99-7.11v408.4c0,1.77-.38,3.85,0,5.6.05.22,0,.48,0,.71,0,.91,1.78.92,1.78,0V-.8c0-1.77.38-3.85,0-5.6-.05-.22,0-.48,0-.71,0-.91-1.78-.92-1.78,0h0Z"/>
      <path class="cls-2" d="m737.4-7.11v408.4c0,1.77-.38,3.85,0,5.6.05.22,0,.48,0,.71,0,.91,1.78.92,1.78,0V-.8c0-1.77.38-3.85,0-5.6-.05-.22,0-.48,0-.71,0-.91-1.78-.92-1.78,0h0Z"/>
    </g>
    <g>
      <path class="cls-2" d="m701.02-7.11v408.4c0,1.77-.38,3.85,0,5.6.05.22,0,.48,0,.71,0,.91,1.78.92,1.78,0V-.8c0-1.77.38-3.85,0-5.6-.05-.22,0-.48,0-.71,0-.91-1.78-.92-1.78,0h0Z"/>
      <path class="cls-2" d="m664.43-7.11v408.4c0,1.77-.38,3.85,0,5.6.05.22,0,.48,0,.71,0,.91,1.78.92,1.78,0V-.8c0-1.77.38-3.85,0-5.6-.05-.22,0-.48,0-.71,0-.91-1.78-.92-1.78,0h0Z"/>
      <path class="cls-2" d="m627.84-7.11v408.4c0,1.77-.38,3.85,0,5.6.05.22,0,.48,0,.71,0,.91,1.78.92,1.78,0V-.8c0-1.77.38-3.85,0-5.6-.05-.22,0-.48,0-.71,0-.91-1.78-.92-1.78,0h0Z"/>
      <path class="cls-2" d="m591.25-7.11v408.4c0,1.77-.38,3.85,0,5.6.05.22,0,.48,0,.71,0,.91,1.78.92,1.78,0V-.8c0-1.77.38-3.85,0-5.6-.05-.22,0-.48,0-.71,0-.91-1.78-.92-1.78,0h0Z"/>
    </g>
    <g>
      <path class="cls-2" d="m553.86-7.11v408.4c0,1.77-.38,3.85,0,5.6.05.22,0,.48,0,.71,0,.91,1.78.92,1.78,0V-.8c0-1.77.38-3.85,0-5.6-.05-.22,0-.48,0-.71,0-.91-1.78-.92-1.78,0h0Z"/>
      <path class="cls-2" d="m517.27-7.11v408.4c0,1.77-.38,3.85,0,5.6.05.22,0,.48,0,.71,0,.91,1.78.92,1.78,0V-.8c0-1.77.38-3.85,0-5.6-.05-.22,0-.48,0-.71,0-.91-1.78-.92-1.78,0h0Z"/>
      <path class="cls-2" d="m480.68-7.11v408.4c0,1.77-.38,3.85,0,5.6.05.22,0,.48,0,.71,0,.91,1.78.92,1.78,0V-.8c0-1.77.38-3.85,0-5.6-.05-.22,0-.48,0-.71,0-.91-1.78-.92-1.78,0h0Z"/>
      <path class="cls-2" d="m444.09-7.11v408.4c0,1.77-.38,3.85,0,5.6.05.22,0,.48,0,.71,0,.91,1.78.92,1.78,0V-.8c0-1.77.38-3.85,0-5.6-.05-.22,0-.48,0-.71,0-.91-1.78-.92-1.78,0h0Z"/>
    </g>
    <g>
      <path class="cls-2" d="m407.72-7.11v408.4c0,1.77-.38,3.85,0,5.6.05.22,0,.48,0,.71,0,.91,1.78.92,1.78,0V-.8c0-1.77.38-3.85,0-5.6-.05-.22,0-.48,0-.71,0-.91-1.78-.92-1.78,0h0Z"/>
      <path class="cls-2" d="m371.13-7.11v408.4c0,1.77-.38,3.85,0,5.6.05.22,0,.48,0,.71,0,.91,1.78.92,1.78,0V-.8c0-1.77.38-3.85,0-5.6-.05-.22,0-.48,0-.71,0-.91-1.78-.92-1.78,0h0Z"/>
      <path class="cls-2" d="m334.54-7.11v408.4c0,1.77-.38,3.85,0,5.6.05.22,0,.48,0,.71,0,.91,1.78.92,1.78,0V-.8c0-1.77.38-3.85,0-5.6-.05-.22,0-.48,0-.71,0-.91-1.78-.92-1.78,0h0Z"/>
      <path class="cls-2" d="m297.95-7.11v408.4c0,1.77-.38,3.85,0,5.6.05.22,0,.48,0,.71,0,.91,1.78.92,1.78,0V-.8c0-1.77.38-3.85,0-5.6-.05-.22,0-.48,0-.71,0-.91-1.78-.92-1.78,0h0Z"/>
    </g>
    <g>
      <path class="cls-2" d="m268.68-7.11v408.4c0,1.77-.38,3.85,0,5.6.05.22,0,.48,0,.71,0,.91,1.78.92,1.78,0V-.8c0-1.77.38-3.85,0-5.6-.05-.22,0-.48,0-.71,0-.91-1.78-.92-1.78,0h0Z"/>
      <path class="cls-2" d="m232.09-7.11v408.4c0,1.77-.38,3.85,0,5.6.05.22,0,.48,0,.71,0,.91,1.78.92,1.78,0V-.8c0-1.77.38-3.85,0-5.6-.05-.22,0-.48,0-.71,0-.91-1.78-.92-1.78,0h0Z"/>
      <path class="cls-2" d="m195.5-7.11v408.4c0,1.77-.38,3.85,0,5.6.05.22,0,.48,0,.71,0,.91,1.78.92,1.78,0V-.8c0-1.77.38-3.85,0-5.6-.05-.22,0-.48,0-.71,0-.91-1.78-.92-1.78,0h0Z"/>
      <path class="cls-2" d="m158.91-7.11v408.4c0,1.77-.38,3.85,0,5.6.05.22,0,.48,0,.71,0,.91,1.78.92,1.78,0V-.8c0-1.77.38-3.85,0-5.6-.05-.22,0-.48,0-.71,0-.91-1.78-.92-1.78,0h0Z"/>
    </g>
    <g>
      <path class="cls-2" d="m122.54-7.11v408.4c0,1.77-.38,3.85,0,5.6.05.22,0,.48,0,.71,0,.91,1.78.92,1.78,0V-.8c0-1.77.38-3.85,0-5.6-.05-.22,0-.48,0-.71,0-.91-1.78-.92-1.78,0h0Z"/>
      <path class="cls-2" d="m85.95-7.11v408.4c0,1.77-.38,3.85,0,5.6.05.22,0,.48,0,.71,0,.91,1.78.92,1.78,0V-.8c0-1.77.38-3.85,0-5.6-.05-.22,0-.48,0-.71,0-.91-1.78-.92-1.78,0h0Z"/>
      <path class="cls-2" d="m49.36-7.11v408.4c0,1.77-.38,3.85,0,5.6.05.22,0,.48,0,.71,0,.91,1.78.92,1.78,0V-.8c0-1.77.38-3.85,0-5.6-.05-.22,0-.48,0-.71,0-.91-1.78-.92-1.78,0h0Z"/>
      <path class="cls-2" d="m12.77-7.11v408.4c0,1.77-.38,3.85,0,5.6.05.22,0,.48,0,.71,0,.91,1.78.92,1.78,0V-.8c0-1.77.38-3.85,0-5.6-.05-.22,0-.48,0-.71,0-.91-1.78-.92-1.78,0h0Z"/>
    </g>
  </g>
  <rect class="cls-3" x="-7.17" y="395.12" width="882.95" height="264.88"/>
</svg>